<?xml version="1.0" standalone="no"?>
<!DOCTYPE svg PUBLIC "-//W3C//DTD SVG 20010904//EN"
 "http://www.w3.org/TR/2001/REC-SVG-20010904/DTD/svg10.dtd">
<svg version="1.0" xmlns="http://www.w3.org/2000/svg"
 width="225.000000pt" height="225.000000pt" viewBox="0 0 225.000000 225.000000"
 preserveAspectRatio="xMidYMid meet">
<metadata>
Created by potrace 1.15, written by Peter Selinger 2001-2017
</metadata>
<g transform="translate(0.000000,225.000000) scale(0.100000,-0.100000)"
fill="#000000" stroke="none">
<path d="M885 1725 c-16 -7 -110 -93 -207 -192 -157 -158 -178 -183 -178 -212
0 -18 5 -42 11 -54 7 -12 77 -89 158 -171 248 -252 247 -252 390 -111 l96 94
96 -94 c92 -91 98 -95 140 -95 43 0 45 1 231 188 252 251 252 212 -1 465 -185
187 -189 190 -231 190 -40 0 -47 -5 -135 -93 -106 -105 -91 -104 -176 -20
-119 118 -141 129 -194 105z"/>
<path d="M618 743 c-24 -6 -23 -39 2 -46 16 -4 20 -14 20 -46 0 -39 -2 -41
-30 -41 l-30 0 0 65 0 65 -30 0 -30 0 0 -85 0 -84 36 -7 c42 -8 100 0 120 17
15 12 20 125 6 145 -9 14 -42 23 -64 17z"/>
<path d="M933 743 c-24 -3 -33 -9 -33 -24 0 -16 7 -19 50 -19 l50 0 0 -44 c0
-48 -5 -53 -63 -51 -33 1 -37 -2 -35 -20 2 -15 12 -21 42 -23 84 -7 116 17
116 88 0 77 -38 105 -127 93z"/>
<path d="M1100 735 c-9 -11 -10 -19 -3 -26 7 -7 6 -20 -4 -40 -8 -16 -13 -46
-11 -66 3 -33 7 -38 30 -41 25 -3 27 -1 30 43 l3 46 40 -51 c39 -50 40 -50 59
-30 20 19 20 20 -1 42 -21 23 -21 23 -2 47 10 13 19 36 19 52 0 26 -4 29 -30
29 -27 0 -30 -3 -30 -30 0 -39 -12 -38 -44 5 -30 39 -38 42 -56 20z"/>
<path d="M1470 660 c0 -95 0 -95 111 -95 101 0 109 7 109 101 0 72 -1 74 -25
74 -23 0 -24 -3 -27 -67 -2 -53 -6 -68 -18 -68 -12 0 -16 15 -18 68 -3 60 -5
67 -23 67 -19 0 -20 -5 -17 -70 3 -67 2 -70 -19 -70 -22 0 -23 4 -23 70 0 68
-1 70 -25 70 -25 0 -25 -1 -25 -80z"/>
</g>
</svg>
